<?xml version="1.0" encoding="UTF-8"?>
<svg id="Layer_1" xmlns="http://www.w3.org/2000/svg" viewBox="0 0 1470 1430">
  <defs>
    <style>
      .cls-1 {
        fill: #231f20;
      }

      .cls-2 {
        fill: #84bd00;
      }
    </style>
  </defs>
  <path d="M715.16,441.64v-210.66l-275,475.72c69.09-28.74,156.21-47.71,244.76-53.22l10.89-47.77c-49.76,1.62-77.32,7.06-77.32,7.06l96.67-171.13Z"/>
  <path d="M753.78,230.94v210.89l96.69,170.93s-26.13-5.51-77.32-7.06l10.89,47.77c88.42,5.51,175.67,24.36,244.82,53.22l-275.09-475.75Z"/>
  <path class="cls-2" d="M734.47,48.72l-424.04,153.22v581.01l424.04,153.2,424.04-153.2V201.94L734.47,48.72ZM1094.61,738.95l-360.13,130.19-360.11-130.19V245.82l360.11-130.07,360.13,130.07v493.13Z"/>
  <g>
    <path class="cls-1" d="M1089.54,1299.34c0,12.32-10.33,16.56-23.07,16.56h-48.84c-12.74,0-23.65-4.25-23.65-16.56v-148.27c0-12.31,10.91-16.56,23.65-16.56h48.84c12.74,0,23.07,4.25,23.07,16.56v9.79h78.86v-16.99c0-48.84-26.33-74.75-76.02-74.75h-100.65c-49.69,0-76.02,25.91-76.02,74.75v162.65c0,48.84,26.33,74.75,76.02,74.75h100.65c49.69,0,76.02-25.91,76.02-74.75v-16.78h-78.86v9.59Z"/>
    <g>
      <path d="M1089.27,1299.34c0,12.32-10.33,16.56-23.07,16.56h-48.84c-12.74,0-23.65-4.25-23.65-16.56v-148.27c0-12.31,10.91-16.56,23.65-16.56h48.84c12.74,0,23.07,4.25,23.07,16.56v9.79h78.86v-16.99c0-48.84-26.33-74.75-76.02-74.75h-100.65c-49.69,0-76.02,25.91-76.02,74.75v162.65c0,48.84,26.33,74.75,76.02,74.75h100.65c49.69,0,76.02-25.91,76.02-74.75v-16.78h-78.86v9.59Z"/>
      <path d="M485.77,1069.13h-95.82c-51.1,0-77.08,25.55-77.08,75.37v161.39c0,49.83,25.98,75.38,77.08,75.38h95.82c51.1,0,77.08-25.55,77.08-75.38v-161.39c0-49.82-25.98-75.37-77.08-75.37ZM486.83,1302.28h-73.46l-25.01,26.09v-181.57s73.46,0,73.46,0l25.01-26.09v181.57Z"/>
      <polygon points="157.42 1136.12 278.43 1136.12 278.43 1069.13 197.83 1069.13 25.42 1069.13 25.42 1117.5 47.68 1123.68 47.68 1381.28 134.92 1381.28 134.92 1270.43 240.37 1270.43 240.37 1205.38 134.92 1205.38 134.92 1136.12 157.42 1136.12"/>
      <path d="M821.8,1265.7c30.21-9.63,45.09-33.71,45.09-72.23v-46.85c0-51.22-26.7-77.49-79.68-77.49h-191.93v48.37l22.51,5.56v258.22h78.8v-110.76h46.36l58.73,110.76h83.3l-63.19-115.58ZM788.09,1180.77c0,17.08-6.13,22.77-24.52,22.77h-66.98v-67.42h66.98c18.39,0,24.52,5.69,24.52,23.2v21.45Z"/>
      <polygon points="1301.88 1136.12 1444.58 1136.12 1444.58 1069.13 1200.57 1069.13 1200.57 1117.5 1223.06 1123.06 1223.06 1123.06 1223.06 1381.28 1444.58 1381.28 1444.58 1314.3 1301.86 1314.3 1301.86 1255.2 1409.8 1255.2 1409.8 1188.21 1301.86 1188.21 1301.88 1136.12"/>
    </g>
  </g>
</svg>